<?xml version="1.0" encoding="utf-8"?><svg xmlns="http://www.w3.org/2000/svg" xmlns:xlink="http://www.w3.org/1999/xlink" width="3000" height="2000" preserveAspectRatio="xMidYMid" viewBox="0 0 3000 2000" style="z-index:1;margin-right:-2px;display:block;background-repeat-y:initial;background-repeat-x:initial;animation-play-state:paused" ><g transform="translate(1500,1000) scale(1,1) translate(-1500,-1000)" style="transform:matrix(1, 0, 0, 1, 0, 0);animation-play-state:paused" ><g transform="translate(3900,1000) scale(100)" opacity="0.9" style="transform:matrix(100, 0, 0, 100, 3900, 1000);opacity:0.9;animation-play-state:paused" ><path d="M19.44 0 C19.44 0 26.837621249645544 9.768095293381098 26.837621249645544 9.768095293381098 S14.891903974232934 12.495791132306325 14.891903974232934 12.495791132306325 S14.280000000000003 24.733685532083566 14.280000000000003 24.733685532083566 S3.3757205738451277 19.144662718557324 3.3757205738451277 19.144662718557324 S-4.959391954167529 28.12610942602866 -4.959391954167529 28.12610942602866 S-9.719999999999997 16.83553384956949 -9.719999999999997 16.83553384956949 S-21.878229295478008 18.35801413264757 -21.878229295478008 18.35801413264757 S-18.267624548078057 6.648871586251003 -18.267624548078057 6.648871586251003 S-28.56 3.4975912583648407e-15 -28.56 3.4975912583648407e-15 S-18.26762454807806 -6.6488715862509995 -18.26762454807806 -6.6488715862509995 S-21.878229295478015 -18.35801413264756 -21.878229295478015 -18.35801413264756 S-9.72000000000001 -16.835533849569487 -9.72000000000001 -16.835533849569487 S-4.95939195416753 -28.12610942602866 -4.95939195416753 -28.12610942602866 S3.375720573845119 -19.144662718557328 3.375720573845119 -19.144662718557328 S14.280000000000003 -24.733685532083566 14.280000000000003 -24.733685532083566 S14.89190397423293 -12.49579113230633 14.89190397423293 -12.49579113230633 S26.837621249645533 -9.76809529338112 26.837621249645533 -9.76809529338112 S19.44 -4.761426755084909e-15 19.44 -4.761426755084909e-15" fill="#0a69aa" stroke-width="0" transform="matrix(1,0,0,1,0,0)" style="transform:matrix(1, 0, 0, 1, 0, 0);animation-play-state:paused" ></path></g></g></svg>