<svg width="307" height="142" viewBox="0 0 307 142" fill="none" xmlns="http://www.w3.org/2000/svg">
<rect width="307" height="142" fill="#353435"/>
<path d="M106.766 98.7234L1 94.6663L102.462 114.276L114.595 126.952L130.5 134.622L149.908 137.942L167.895 134.622L181.325 130.386L203.308 114.276L306 94.6663L199.004 98.7234L196.544 112.956L185.65 122.143L173.177 128.325L161.494 132.533H145.506L130.5 128.325L121.391 122.143L107.996 106.838L106.766 98.7234Z" fill="#E3E3DB" stroke="#E3E3DB" stroke-width="0.864933"/>
<path d="M94.7956 101.232C97.8644 112.871 105.313 123.244 115.92 130.65C126.528 138.057 139.666 142.059 153.181 141.999C166.697 141.94 179.79 137.822 190.314 130.323C200.838 122.823 208.169 112.386 211.107 100.72L198.401 98.2183C196.104 107.338 190.373 115.498 182.145 121.361C173.919 127.224 163.683 130.443 153.118 130.489C142.551 130.536 132.28 127.408 123.988 121.617C115.694 115.827 109.871 107.718 107.472 98.6184L94.7956 101.232Z" fill="#E3E3DB"/>
<path d="M200.234 54.0951L306 58.1522L204.538 38.5428L192.406 25.867L176.5 18.1963L157.092 14.8762L139.105 18.1963L125.675 22.4323L103.692 38.5428L1 58.1522L107.996 54.0951L110.456 39.863L121.35 30.6753L133.823 24.4931L145.506 20.2857H161.494L176.5 24.4931L185.609 30.6753L199.004 45.9808L200.234 54.0951Z" fill="#E3E3DB" stroke="#E3E3DB" stroke-width="0.864933"/>
<path d="M212.204 51.5867C209.135 39.9474 201.688 29.5748 191.08 22.1682C180.472 14.7615 167.334 10.7603 153.819 10.8197C140.303 10.8792 127.21 14.996 116.686 22.4956C106.162 29.9951 98.8311 40.4329 95.8935 52.0986L108.599 54.6002C110.895 45.4802 116.627 37.3202 124.855 31.4571C133.081 25.5942 143.317 22.3758 153.882 22.3293C164.449 22.2828 174.72 25.4109 183.012 31.2013C191.305 36.9915 197.129 45.1006 199.528 54.2L212.204 51.5867Z" fill="#E3E3DB"/>
<path d="M179.942 45.9807L152.27 83.8472L136.282 73.7044" stroke="#FF0000" stroke-opacity="0.76" stroke-width="2.46667"/>
<path d="M168.258 102.781H141.202V119.009H168.258V102.781Z" fill="#FF0000" fill-opacity="0.76"/>
<path d="M145.825 116.304V104.501H150.059C150.869 104.501 151.561 104.661 152.134 104.98C152.71 105.295 153.148 105.742 153.45 106.323C153.753 106.899 153.906 107.577 153.906 108.357C153.906 109.141 153.752 109.815 153.445 110.38C153.137 110.941 152.691 111.371 152.108 111.671C151.527 111.97 150.825 112.12 150.001 112.12H147.165V110.115H149.635C150.068 110.115 150.427 110.049 150.713 109.919C151 109.788 151.214 109.592 151.353 109.331C151.497 109.07 151.568 108.745 151.568 108.357C151.568 107.965 151.497 107.635 151.353 107.366C151.214 107.097 150.999 106.893 150.708 106.755C150.422 106.613 150.06 106.542 149.624 106.542H148.094V116.304H145.825ZM151.621 110.933L154.288 116.304H151.783L149.173 110.933H151.621ZM159.313 116.304H155.51V104.501H159.345C160.425 104.501 161.354 104.738 162.133 105.21C162.912 105.679 163.512 106.353 163.931 107.233C164.353 108.113 164.565 109.166 164.565 110.391C164.565 111.621 164.353 112.677 163.931 113.561C163.512 114.445 162.909 115.123 162.122 115.595C161.34 116.068 160.404 116.304 159.313 116.304ZM157.779 114.166H159.22C159.89 114.166 160.455 114.035 160.912 113.774C161.373 113.509 161.719 113.1 161.95 112.547C162.184 111.99 162.301 111.271 162.301 110.391C162.301 109.519 162.184 108.806 161.95 108.253C161.719 107.7 161.375 107.293 160.917 107.031C160.46 106.77 159.895 106.64 159.225 106.64H157.779V114.166Z" fill="#E3E3DB"/>
<path d="M212.759 83.8474L208.802 69.0942H212.863L214.698 78.171H214.803L216.977 69.0942H220.174L222.349 78.1998H222.453L224.288 69.0942H228.35L224.393 83.8474H220.907L218.629 75.6063H218.523L216.244 83.8474H212.759ZM231.447 83.8474H227.517L231.945 69.0942H236.924L241.352 83.8474H237.422L234.486 73.1572H234.382L231.447 83.8474ZM230.713 78.0268H238.103V81.0235H230.713V78.0268ZM240.584 72.3215V69.0942H252.245V72.3215H248.209V83.8474H244.619V72.3215H240.584ZM265.51 74.6266H261.816C261.79 74.2904 261.72 73.9855 261.607 73.7118C261.497 73.438 261.343 73.2027 261.148 73.0058C260.955 72.8042 260.721 72.6504 260.447 72.5448C260.171 72.4343 259.859 72.3791 259.51 72.3791C258.898 72.3791 258.381 72.5424 257.958 72.869C257.538 73.1956 257.218 73.6638 257.001 74.2737C256.787 74.8836 256.68 75.616 256.68 76.4709C256.68 77.3737 256.789 78.1301 257.007 78.74C257.23 79.3451 257.551 79.8014 257.97 80.1086C258.389 80.4113 258.893 80.5625 259.484 80.5625C259.82 80.5625 260.121 80.5169 260.388 80.4256C260.653 80.3296 260.886 80.1928 261.081 80.015C261.278 79.8373 261.438 79.6237 261.56 79.3739C261.686 79.1194 261.771 78.8336 261.816 78.5166L265.51 78.5454C265.467 79.1698 265.307 79.8061 265.032 80.4544C264.757 81.098 264.366 81.6935 263.86 82.2409C263.358 82.7836 262.734 83.2207 261.993 83.5521C261.25 83.8834 260.388 84.0491 259.405 84.0491C258.173 84.0491 257.068 83.7586 256.089 83.1774C255.117 82.5963 254.346 81.7415 253.777 80.6129C253.214 79.4844 252.932 78.1036 252.932 76.4709C252.932 74.8284 253.22 73.4452 253.797 72.3215C254.374 71.193 255.151 70.3404 256.129 69.7642C257.108 69.1831 258.2 68.8926 259.405 68.8926C260.252 68.8926 261.032 69.0198 261.743 69.2744C262.455 69.5289 263.08 69.901 263.617 70.3909C264.155 70.876 264.586 71.4739 264.915 72.1847C265.242 72.8953 265.44 73.7095 265.51 74.6266ZM267.163 83.8474V69.0942H270.806V74.8572H275.627V69.0942H279.269V83.8474H275.627V78.0844H270.806V83.8474H267.163ZM280.999 83.8474V69.0942H290.668V72.3215H284.641V74.8572H290.17V78.0844H284.641V80.6201H290.642V83.8474H280.999ZM299.707 73.7046C299.671 73.2244 299.508 72.8498 299.215 72.5808C298.927 72.3119 298.488 72.1774 297.898 72.1774C297.523 72.1774 297.215 72.2278 296.974 72.3287C296.739 72.4247 296.565 72.5568 296.45 72.7249C296.337 72.893 296.278 73.0851 296.273 73.3012C296.265 73.4789 296.293 73.6398 296.359 73.7839C296.429 73.9231 296.538 74.0504 296.686 74.1656C296.835 74.2761 297.025 74.377 297.256 74.4682C297.488 74.5594 297.763 74.6411 298.082 74.7131L299.182 74.9725C299.925 75.1453 300.56 75.3734 301.089 75.6568C301.617 75.9402 302.05 76.274 302.386 76.658C302.722 77.0375 302.968 77.4649 303.126 77.9404C303.288 78.4159 303.371 78.9345 303.376 79.4964C303.371 80.4665 303.15 81.2876 302.714 81.96C302.276 82.6324 301.653 83.1439 300.84 83.4944C300.032 83.845 299.06 84.0202 297.925 84.0202C296.759 84.0202 295.741 83.8306 294.872 83.4512C294.007 83.0718 293.335 82.4883 292.854 81.7007C292.378 80.9083 292.138 79.895 292.134 78.6608H295.592C295.614 79.1122 295.717 79.4915 295.901 79.7989C296.084 80.1063 296.341 80.3392 296.673 80.4977C297.01 80.6562 297.41 80.7355 297.872 80.7355C298.261 80.7355 298.587 80.6826 298.848 80.577C299.11 80.4713 299.308 80.3247 299.445 80.1374C299.58 79.9503 299.649 79.7365 299.654 79.4964C299.649 79.2707 299.581 79.0738 299.451 78.9057C299.324 78.7327 299.114 78.5791 298.823 78.4447C298.53 78.3054 298.134 78.1757 297.636 78.0556L296.3 77.7387C295.112 77.4553 294.175 76.9824 293.49 76.3196C292.809 75.652 292.469 74.7419 292.474 73.5894C292.469 72.6529 292.697 71.834 293.156 71.1329C293.618 70.4268 294.259 69.877 295.075 69.4833C295.896 69.0895 296.838 68.8926 297.898 68.8926C298.981 68.8926 299.918 69.0918 300.709 69.4905C301.499 69.889 302.109 70.4509 302.537 71.1761C302.968 71.8965 303.187 72.7393 303.191 73.7046H299.707Z" fill="#E3E3DB"/>
<path d="M37.2377 70.969V67.7417H48.8984V70.969H44.8631V82.4949H41.273V70.969H37.2377ZM50.2692 82.4949V67.7417H53.9116V73.5047H58.7331V67.7417H62.3755V82.4949H58.7331V76.7319H53.9116V82.4949H50.2692ZM64.1049 82.4949V67.7417H73.7741V70.969H67.7473V73.5047H73.2763V76.7319H67.7473V79.2676H73.7479V82.4949H64.1049Z" fill="#E3E3DB"/>
<path d="M120.294 21.6379L186.706 21.6379V10.8189L120.294 10.8189V21.6379Z" fill="#E3E3DB"/>
<path d="M183.869 13.3765L172.895 11.791L173.827 4.97055L184.801 6.556L183.869 13.3765Z" fill="#E3E3DB"/>
<path d="M186.044 7.85285L171.948 5.81641L172.29 3.31273L186.386 5.34918L186.044 7.85285Z" fill="#E3E3DB"/>
<path d="M123.25 13.0997L134.211 11.4058L133.338 4.57236L122.377 6.26629L123.25 13.0997Z" fill="#E3E3DB"/>
<path d="M121.08 7.88938L135.158 5.71362L134.838 3.20929L120.76 5.38505L121.08 7.88938Z" fill="#E3E3DB"/>
<path d="M141.202 8.11426L165.798 8.11426V9.53674e-06L141.202 9.53674e-06V8.11426Z" fill="#E3E3DB"/>
<path d="M144.891 12.1714L162.109 12.1714V5.40951L144.891 5.40951V12.1714Z" fill="#E3E3DB"/>
</svg>
